<svg xmlns="http://www.w3.org/2000/svg" viewBox="0 0 100 100">
  <defs>
    <linearGradient id="cloudGrad" x1="0%" y1="0%" x2="100%" y2="100%">
      <stop offset="0%" style="stop-color:#e74c3c"/>
      <stop offset="100%" style="stop-color:#c0392b"/>
    </linearGradient>
  </defs>
  <path fill="url(#cloudGrad)" d="M82 42c0-12.15-9.85-22-22-22-8.8 0-16.4 5.2-19.9 12.7C37.1 31 34 30 30.5 30 22.5 30 16 36.5 16 44.5c0 .5 0 1 .1 1.5C10.4 48 6 54.2 6 61.5 6 71.4 14.1 79.5 24 79.5h52c11 0 20-9 20-20 0-9.6-6.8-17.5-14-17.5z"/>
  <g fill="#fff">
    <path d="M35 45h12v4H35z"/>
    <path d="M35 53h12v4H35z"/>
    <path d="M53 45h12v4H53z"/>
    <path d="M53 53h12v4H53z"/>
    <path d="M47 49l6-8h-4V37h-4v4h-4l6 8z" transform="rotate(90 50 50)"/>
  </g>
</svg>
